REM DIRINDEX 1\2\4\8,1\2\4\9,1\2\4\10,1\2\5\11,1\2\5\12,1\2\5\13,1\2\5\14,1\2\5\15,1\3\6\16,1\3\6\17,1\3\6\18,1\3\7\19,1\3\7\20,1\3\7\21,1\3\7\22,1\3\7\23
REM DIRNAME "folder01","folder02","folder03","folder04","folder05","folder06","folder07","folder08","folder09","folder10","folder11","folder12","folder13","folder14","folder15","folder16","folder17","folder18","folder19","folder20","folder21","folder22","folder23"
TITLE ""
FILE "LR_black_phrase_A02.mp3" MP3
  TRACK 01 AUDIO
    TITLE "0:"
    INDEX 01 00:00:00
  TRACK 02 AUDIO
    TITLE "19:cjc171_11151"
    INDEX 01 00:00:18
  TRACK 03 AUDIO
    TITLE "0:"
    INDEX 01 00:01:43
  TRACK 04 AUDIO
    TITLE "20:cjc171_11152"
    INDEX 01 00:02:07
  TRACK 05 AUDIO
    TITLE "0:"
    INDEX 01 00:04:26
  TRACK 06 AUDIO
    TITLE "21:cjc171_11153"
    INDEX 01 00:05:29
  TRACK 07 AUDIO
    TITLE "0:"
    INDEX 01 00:07:12
  TRACK 08 AUDIO
    TITLE "22:cjc171_11154"
    INDEX 01 00:07:51
  TRACK 09 AUDIO
    TITLE "0:"
    INDEX 01 00:09:70
  TRACK 10 AUDIO
    TITLE "23:cjc171_11155"
    INDEX 01 00:10:22
  TRACK 11 AUDIO
    TITLE "0:"
    INDEX 01 00:12:39
  TRACK 12 AUDIO
    TITLE "19:cjc171_11156"
    INDEX 01 00:13:34
  TRACK 13 AUDIO
    TITLE "0:"
    INDEX 01 00:14:40
  TRACK 14 AUDIO
    TITLE "20:cjc171_11157"
    INDEX 01 00:15:06
  TRACK 15 AUDIO
    TITLE "0:"
    INDEX 01 00:16:43
  TRACK 16 AUDIO
    TITLE "21:cjc171_11158"
    INDEX 01 00:17:42
  TRACK 17 AUDIO
    TITLE "0:"
    INDEX 01 00:20:11
  TRACK 18 AUDIO
    TITLE "22:cjc171_11159"
    INDEX 01 00:20:50
  TRACK 19 AUDIO
    TITLE "0:"
    INDEX 01 00:22:51
  TRACK 20 AUDIO
    TITLE "23:cjc171_11160"
    INDEX 01 00:23:05
  TRACK 21 AUDIO
    TITLE "0:"
    INDEX 01 00:25:06
  TRACK 22 AUDIO
    TITLE "19:cjc171_11161"
    INDEX 01 00:26:10
  TRACK 23 AUDIO
    TITLE "0:"
    INDEX 01 00:27:37
  TRACK 24 AUDIO
    TITLE "20:cjc171_11162"
    INDEX 01 00:28:03
  TRACK 25 AUDIO
    TITLE "0:"
    INDEX 01 00:30:70
  TRACK 26 AUDIO
    TITLE "21:cjc171_11163"
    INDEX 01 00:31:70
  TRACK 27 AUDIO
    TITLE "0:"
    INDEX 01 00:34:07
  TRACK 28 AUDIO
    TITLE "22:cjc171_11164"
    INDEX 01 00:34:44
  TRACK 29 AUDIO
    TITLE "0:"
    INDEX 01 00:36:55
  TRACK 30 AUDIO
    TITLE "23:cjc171_11165"
    INDEX 01 00:37:11
  TRACK 31 AUDIO
    TITLE "0:"
    INDEX 01 00:39:22
  TRACK 32 AUDIO
    TITLE "19:cjc171_11166"
    INDEX 01 00:40:29
  TRACK 33 AUDIO
    TITLE "0:"
    INDEX 01 00:41:43
  TRACK 34 AUDIO
    TITLE "20:cjc171_11167"
    INDEX 01 00:42:19
  TRACK 35 AUDIO
    TITLE "0:"
    INDEX 01 00:43:53
  TRACK 36 AUDIO
    TITLE "21:cjc171_11168"
    INDEX 01 00:44:51
  TRACK 37 AUDIO
    TITLE "0:"
    INDEX 01 00:46:44
  TRACK 38 AUDIO
    TITLE "22:cjc171_11169"
    INDEX 01 00:47:10
  TRACK 39 AUDIO
    TITLE "0:"
    INDEX 01 00:49:15
  TRACK 40 AUDIO
    TITLE "23:cjc171_11170"
    INDEX 01 00:49:48
  TRACK 41 AUDIO
    TITLE "0:"
    INDEX 01 00:51:55
  TRACK 42 AUDIO
    TITLE "19:cjc171_11171"
    INDEX 01 00:52:60
  TRACK 43 AUDIO
    TITLE "0:"
    INDEX 01 00:54:06
  TRACK 44 AUDIO
    TITLE "20:cjc171_11172"
    INDEX 01 00:54:45
  TRACK 45 AUDIO
    TITLE "0:"
    INDEX 01 00:56:11
  TRACK 46 AUDIO
    TITLE "21:cjc171_11173"
    INDEX 01 00:57:10
  TRACK 47 AUDIO
    TITLE "0:"
    INDEX 01 00:59:09
  TRACK 48 AUDIO
    TITLE "22:cjc171_11174"
    INDEX 01 00:59:52
  TRACK 49 AUDIO
    TITLE "0:"
    INDEX 01 01:01:32
  TRACK 50 AUDIO
    TITLE "23:cjc171_11175"
    INDEX 01 01:01:65
  TRACK 51 AUDIO
    TITLE "0:"
    INDEX 01 01:03:44
  TRACK 52 AUDIO
    TITLE "19:cjc171_11176"
    INDEX 01 01:04:49
  TRACK 53 AUDIO
    TITLE "0:"
    INDEX 01 01:06:07
  TRACK 54 AUDIO
    TITLE "20:cjc171_11177"
    INDEX 01 01:06:43
  TRACK 55 AUDIO
    TITLE "0:"
    INDEX 01 01:08:08
  TRACK 56 AUDIO
    TITLE "21:cjc171_11178"
    INDEX 01 01:09:04
  TRACK 57 AUDIO
    TITLE "0:"
    INDEX 01 01:10:68
  TRACK 58 AUDIO
    TITLE "22:cjc171_11179"
    INDEX 01 01:11:22
  TRACK 59 AUDIO
    TITLE "0:"
    INDEX 01 01:13:54
  TRACK 60 AUDIO
    TITLE "23:cjc171_11180"
    INDEX 01 01:14:01
  TRACK 61 AUDIO
    TITLE "0:"
    INDEX 01 01:16:31
  TRACK 62 AUDIO
    TITLE "19:cjc171_11181"
    INDEX 01 01:17:38
  TRACK 63 AUDIO
    TITLE "0:"
    INDEX 01 01:18:55
  TRACK 64 AUDIO
    TITLE "20:cjc171_11182"
    INDEX 01 01:19:20
  TRACK 65 AUDIO
    TITLE "0:"
    INDEX 01 01:21:73
  TRACK 66 AUDIO
    TITLE "21:cjc171_11183"
    INDEX 01 01:22:71
  TRACK 67 AUDIO
    TITLE "0:"
    INDEX 01 01:24:42
  TRACK 68 AUDIO
    TITLE "22:cjc171_11184"
    INDEX 01 01:25:07
  TRACK 69 AUDIO
    TITLE "0:"
    INDEX 01 01:27:04
  TRACK 70 AUDIO
    TITLE "23:cjc171_11185"
    INDEX 01 01:27:33
  TRACK 71 AUDIO
    TITLE "0:"
    INDEX 01 01:29:28
  TRACK 72 AUDIO
    TITLE "19:cjc171_11186"
    INDEX 01 01:30:31
  TRACK 73 AUDIO
    TITLE "0:"
    INDEX 01 01:31:64
  TRACK 74 AUDIO
    TITLE "20:cjc171_11187"
    INDEX 01 01:32:30
  TRACK 75 AUDIO
    TITLE "0:"
    INDEX 01 01:35:64
  TRACK 76 AUDIO
    TITLE "21:cjc171_11188"
    INDEX 01 01:36:59
  TRACK 77 AUDIO
    TITLE "0:"
    INDEX 01 01:39:38
  TRACK 78 AUDIO
    TITLE "22:cjc171_11189"
    INDEX 01 01:40:02
  TRACK 79 AUDIO
    TITLE "0:"
    INDEX 01 01:42:64
  TRACK 80 AUDIO
    TITLE "23:cjc171_11190"
    INDEX 01 01:43:18
  TRACK 81 AUDIO
    TITLE "0:"
    INDEX 01 01:46:05
  TRACK 82 AUDIO
    TITLE "19:cjc171_11191"
    INDEX 01 01:47:08
  TRACK 83 AUDIO
    TITLE "0:"
    INDEX 01 01:48:21
  TRACK 84 AUDIO
    TITLE "20:cjc171_11192"
    INDEX 01 01:48:60
  TRACK 85 AUDIO
    TITLE "0:"
    INDEX 01 01:50:59
  TRACK 86 AUDIO
    TITLE "21:cjc171_11193"
    INDEX 01 01:51:57
  TRACK 87 AUDIO
    TITLE "0:"
    INDEX 01 01:53:64
  TRACK 88 AUDIO
    TITLE "22:cjc171_11194"
    INDEX 01 01:54:30
  TRACK 89 AUDIO
    TITLE "0:"
    INDEX 01 01:56:56
  TRACK 90 AUDIO
    TITLE "23:cjc171_11195"
    INDEX 01 01:57:10
  TRACK 91 AUDIO
    TITLE "0:"
    INDEX 01 01:59:37
  TRACK 92 AUDIO
    TITLE "19:cjc171_11196"
    INDEX 01 02:00:40
  TRACK 93 AUDIO
    TITLE "0:"
    INDEX 01 02:01:75
  TRACK 94 AUDIO
    TITLE "20:cjc171_11197"
    INDEX 01 02:02:39
  TRACK 95 AUDIO
    TITLE "0:"
    INDEX 01 02:05:16
  TRACK 96 AUDIO
    TITLE "21:cjc171_11198"
    INDEX 01 02:06:13
  TRACK 97 AUDIO
    TITLE "0:"
    INDEX 01 02:08:14
  TRACK 98 AUDIO
    TITLE "22:cjc171_11199"
    INDEX 01 02:08:51
  TRACK 99 AUDIO
    TITLE "0:"
    INDEX 01 02:11:26
  TRACK 100 AUDIO
    TITLE "23:cjc171_11200"
    INDEX 01 02:11:54
  TRACK 101 AUDIO
    TITLE "0:"
    INDEX 01 02:14:29
  TRACK 102 AUDIO
    TITLE "19:cjc171_11201"
    INDEX 01 02:15:32
  TRACK 103 AUDIO
    TITLE "0:"
    INDEX 01 02:16:47
  TRACK 104 AUDIO
    TITLE "20:cjc171_11202"
    INDEX 01 02:17:05
  TRACK 105 AUDIO
    TITLE "0:"
    INDEX 01 02:20:13
  TRACK 106 AUDIO
    TITLE "21:cjc171_11203"
    INDEX 01 02:21:13
  TRACK 107 AUDIO
    TITLE "0:"
    INDEX 01 02:23:45
  TRACK 108 AUDIO
    TITLE "22:cjc171_11204"
    INDEX 01 02:24:01
  TRACK 109 AUDIO
    TITLE "0:"
    INDEX 01 02:26:40
  TRACK 110 AUDIO
    TITLE "23:cjc171_11205"
    INDEX 01 02:26:59
  TRACK 111 AUDIO
    TITLE "0:"
    INDEX 01 02:29:22
  TRACK 112 AUDIO
    TITLE "19:cjc171_11206"
    INDEX 01 02:30:22
  TRACK 113 AUDIO
    TITLE "0:"
    INDEX 01 02:31:49
  TRACK 114 AUDIO
    TITLE "20:cjc171_11207"
    INDEX 01 02:32:13
  TRACK 115 AUDIO
    TITLE "0:"
    INDEX 01 02:33:38
  TRACK 116 AUDIO
    TITLE "21:cjc171_11208"
    INDEX 01 02:34:35
  TRACK 117 AUDIO
    TITLE "0:"
    INDEX 01 02:36:20
  TRACK 118 AUDIO
    TITLE "22:cjc171_11209"
    INDEX 01 02:36:60
  TRACK 119 AUDIO
    TITLE "0:"
    INDEX 01 02:38:54
  TRACK 120 AUDIO
    TITLE "23:cjc171_11210"
    INDEX 01 02:39:07
  TRACK 121 AUDIO
    TITLE "0:"
    INDEX 01 02:40:75
  TRACK 122 AUDIO
    TITLE "19:cjc171_11211"
    INDEX 01 02:42:05
  TRACK 123 AUDIO
    TITLE "0:"
    INDEX 01 02:43:13
  TRACK 124 AUDIO
    TITLE "20:cjc171_11212"
    INDEX 01 02:43:52
  TRACK 125 AUDIO
    TITLE "0:"
    INDEX 01 02:45:08
  TRACK 126 AUDIO
    TITLE "21:cjc171_11213"
    INDEX 01 02:46:07
  TRACK 127 AUDIO
    TITLE "0:"
    INDEX 01 02:47:34
  TRACK 128 AUDIO
    TITLE "22:cjc171_11214"
    INDEX 01 02:47:75
  TRACK 129 AUDIO
    TITLE "0:"
    INDEX 01 02:49:35
  TRACK 130 AUDIO
    TITLE "23:cjc171_11215"
    INDEX 01 02:49:64
  TRACK 131 AUDIO
    TITLE "0:"
    INDEX 01 02:51:24
  TRACK 132 AUDIO
    TITLE "19:cjc171_11216"
    INDEX 01 02:52:29
  TRACK 133 AUDIO
    TITLE "0:"
    INDEX 01 02:53:42
  TRACK 134 AUDIO
    TITLE "20:cjc171_11217"
    INDEX 01 02:54:08
  TRACK 135 AUDIO
    TITLE "0:"
    INDEX 01 02:55:37
  TRACK 136 AUDIO
    TITLE "21:cjc171_11218"
    INDEX 01 02:56:37
  TRACK 137 AUDIO
    TITLE "0:"
    INDEX 01 02:59:51
  TRACK 138 AUDIO
    TITLE "22:cjc171_11219"
    INDEX 01 03:00:15
  TRACK 139 AUDIO
    TITLE "0:"
    INDEX 01 03:02:67
  TRACK 140 AUDIO
    TITLE "23:cjc171_11220"
    INDEX 01 03:03:23
  TRACK 141 AUDIO
    TITLE "0:"
    INDEX 01 03:05:73
  TRACK 142 AUDIO
    TITLE "19:cjc171_11221"
    INDEX 01 03:07:11
  TRACK 143 AUDIO
    TITLE "0:"
    INDEX 01 03:08:40
  TRACK 144 AUDIO
    TITLE "20:cjc171_11222"
    INDEX 01 03:09:04
  TRACK 145 AUDIO
    TITLE "0:"
    INDEX 01 03:12:57
  TRACK 146 AUDIO
    TITLE "21:cjc171_11223"
    INDEX 01 03:13:57
  TRACK 147 AUDIO
    TITLE "0:"
    INDEX 01 03:15:65
  TRACK 148 AUDIO
    TITLE "22:cjc171_11224"
    INDEX 01 03:16:30
  TRACK 149 AUDIO
    TITLE "0:"
    INDEX 01 03:18:29
  TRACK 150 AUDIO
    TITLE "23:cjc171_11225"
    INDEX 01 03:18:58
  TRACK 151 AUDIO
    TITLE "0:"
    INDEX 01 03:20:55
  TRACK 152 AUDIO
    TITLE "19:cjc171_11226"
    INDEX 01 03:21:60
  TRACK 153 AUDIO
    TITLE "0:"
    INDEX 01 03:22:73
  TRACK 154 AUDIO
    TITLE "20:cjc171_11227"
    INDEX 01 03:23:40
  TRACK 155 AUDIO
    TITLE "0:"
    INDEX 01 03:25:50
  TRACK 156 AUDIO
    TITLE "21:cjc171_11228"
    INDEX 01 03:26:55
  TRACK 157 AUDIO
    TITLE "0:"
    INDEX 01 03:28:56
  TRACK 158 AUDIO
    TITLE "22:cjc171_11229"
    INDEX 01 03:29:19
  TRACK 159 AUDIO
    TITLE "0:"
    INDEX 01 03:31:23
  TRACK 160 AUDIO
    TITLE "23:cjc171_11230"
    INDEX 01 03:31:53
  TRACK 161 AUDIO
    TITLE "0:"
    INDEX 01 03:33:56
  TRACK 162 AUDIO
    TITLE "19:cjc171_11231"
    INDEX 01 03:34:59
  TRACK 163 AUDIO
    TITLE "0:"
    INDEX 01 03:36:17
  TRACK 164 AUDIO
    TITLE "20:cjc171_11232"
    INDEX 01 03:36:56
  TRACK 165 AUDIO
    TITLE "0:"
    INDEX 01 03:37:67
  TRACK 166 AUDIO
    TITLE "21:cjc171_11233"
    INDEX 01 03:38:66
  TRACK 167 AUDIO
    TITLE "0:"
    INDEX 01 03:40:63
  TRACK 168 AUDIO
    TITLE "22:cjc171_11234"
    INDEX 01 03:41:30
  TRACK 169 AUDIO
    TITLE "0:"
    INDEX 01 03:43:21
  TRACK 170 AUDIO
    TITLE "23:cjc171_11235"
    INDEX 01 03:43:52
  TRACK 171 AUDIO
    TITLE "0:"
    INDEX 01 03:45:43
  TRACK 172 AUDIO
    TITLE "19:cjc171_11236"
    INDEX 01 03:46:46
  TRACK 173 AUDIO
    TITLE "0:"
    INDEX 01 03:47:56
  TRACK 174 AUDIO
    TITLE "20:cjc171_11237"
    INDEX 01 03:48:20
  TRACK 175 AUDIO
    TITLE "0:"
    INDEX 01 03:50:42
  TRACK 176 AUDIO
    TITLE "21:cjc171_11238"
    INDEX 01 03:51:42
  TRACK 177 AUDIO
    TITLE "0:"
    INDEX 01 03:54:30
  TRACK 178 AUDIO
    TITLE "22:cjc171_11239"
    INDEX 01 03:54:69
  TRACK 179 AUDIO
    TITLE "0:"
    INDEX 01 03:57:15
  TRACK 180 AUDIO
    TITLE "23:cjc171_11240"
    INDEX 01 03:57:42
  TRACK 181 AUDIO
    TITLE "0:"
    INDEX 01 03:59:63
  TRACK 182 AUDIO
    TITLE "19:cjc171_11241"
    INDEX 01 04:00:64
  TRACK 183 AUDIO
    TITLE "0:"
    INDEX 01 04:02:28
  TRACK 184 AUDIO
    TITLE "20:cjc171_11242"
    INDEX 01 04:02:61
  TRACK 185 AUDIO
    TITLE "0:"
    INDEX 01 04:05:42
  TRACK 186 AUDIO
    TITLE "21:cjc171_11243"
    INDEX 01 04:06:43
  TRACK 187 AUDIO
    TITLE "0:"
    INDEX 01 04:08:28
  TRACK 188 AUDIO
    TITLE "22:cjc171_11244"
    INDEX 01 04:08:68
  TRACK 189 AUDIO
    TITLE "0:"
    INDEX 01 04:10:63
  TRACK 190 AUDIO
    TITLE "23:cjc171_11245"
    INDEX 01 04:11:17
  TRACK 191 AUDIO
    TITLE "0:"
    INDEX 01 04:13:14
  TRACK 192 AUDIO
    TITLE "19:cjc171_11246"
    INDEX 01 04:14:17
  TRACK 193 AUDIO
    TITLE "0:"
    INDEX 01 04:15:25
  TRACK 194 AUDIO
    TITLE "20:cjc171_11247"
    INDEX 01 04:15:60
  TRACK 195 AUDIO
    TITLE "0:"
    INDEX 01 04:16:75
  TRACK 196 AUDIO
    TITLE "21:cjc171_11248"
    INDEX 01 04:17:74
  TRACK 197 AUDIO
    TITLE "0:"
    INDEX 01 04:20:41
  TRACK 198 AUDIO
    TITLE "22:cjc171_11249"
    INDEX 01 04:21:04
  TRACK 199 AUDIO
    TITLE "0:"
    INDEX 01 04:23:55
  TRACK 200 AUDIO
    TITLE "23:cjc171_11250"
    INDEX 01 04:24:10
  TRACK 201 AUDIO
    TITLE "0:"
    INDEX 01 04:26:62
  TRACK 202 AUDIO
    TITLE "19:cjc171_11251"
    INDEX 01 04:27:65
  TRACK 203 AUDIO
    TITLE "0:"
    INDEX 01 04:29:09
  TRACK 204 AUDIO
    TITLE "20:cjc171_11252"
    INDEX 01 04:29:44
  TRACK 205 AUDIO
    TITLE "0:"
    INDEX 01 04:31:39
  TRACK 206 AUDIO
    TITLE "21:cjc171_11253"
    INDEX 01 04:32:39
  TRACK 207 AUDIO
    TITLE "0:"
    INDEX 01 04:33:71
  TRACK 208 AUDIO
    TITLE "22:cjc171_11254"
    INDEX 01 04:34:36
  TRACK 209 AUDIO
    TITLE "0:"
    INDEX 01 04:36:37
  TRACK 210 AUDIO
    TITLE "23:cjc171_11255"
    INDEX 01 04:36:64
  TRACK 211 AUDIO
    TITLE "0:"
    INDEX 01 04:38:59
  TRACK 212 AUDIO
    TITLE "19:cjc171_11256"
    INDEX 01 04:39:64
  TRACK 213 AUDIO
    TITLE "0:"
    INDEX 01 04:41:20
  TRACK 214 AUDIO
    TITLE "20:cjc171_11257"
    INDEX 01 04:41:61
  TRACK 215 AUDIO
    TITLE "0:"
    INDEX 01 04:43:52
  TRACK 216 AUDIO
    TITLE "21:cjc171_11258"
    INDEX 01 04:44:50
  TRACK 217 AUDIO
    TITLE "0:"
    INDEX 01 04:47:07
  TRACK 218 AUDIO
    TITLE "22:cjc171_11259"
    INDEX 01 04:47:38
  TRACK 219 AUDIO
    TITLE "0:"
    INDEX 01 04:49:70
  TRACK 220 AUDIO
    TITLE "23:cjc171_11260"
    INDEX 01 04:50:17
  TRACK 221 AUDIO
    TITLE "0:"
    INDEX 01 04:52:49
  TRACK 222 AUDIO
    TITLE "19:cjc171_11261"
    INDEX 01 04:53:55
  TRACK 223 AUDIO
    TITLE "0:"
    INDEX 01 04:54:74
  TRACK 224 AUDIO
    TITLE "20:cjc171_11262"
    INDEX 01 04:55:38
  TRACK 225 AUDIO
    TITLE "0:"
    INDEX 01 04:56:74
  TRACK 226 AUDIO
    TITLE "21:cjc171_11263"
    INDEX 01 04:58:05
  TRACK 227 AUDIO
    TITLE "0:"
    INDEX 01 05:01:38
  TRACK 228 AUDIO
    TITLE "22:cjc171_11264"
    INDEX 01 05:02:03
  TRACK 229 AUDIO
    TITLE "0:"
    INDEX 01 05:05:21
  TRACK 230 AUDIO
    TITLE "23:cjc171_11265"
    INDEX 01 05:05:48
  TRACK 231 AUDIO
    TITLE "0:"
    INDEX 01 05:08:66
  TRACK 232 AUDIO
    TITLE "19:cjc171_11266"
    INDEX 01 05:09:67
  TRACK 233 AUDIO
    TITLE "0:"
    INDEX 01 05:11:19
  TRACK 234 AUDIO
    TITLE "20:cjc171_11267"
    INDEX 01 05:11:54
  TRACK 235 AUDIO
    TITLE "0:"
    INDEX 01 05:13:16
  TRACK 236 AUDIO
    TITLE "21:cjc171_11268"
    INDEX 01 05:14:18
  TRACK 237 AUDIO
    TITLE "0:"
    INDEX 01 05:16:38
  TRACK 238 AUDIO
    TITLE "22:cjc171_11269"
    INDEX 01 05:16:69
  TRACK 239 AUDIO
    TITLE "0:"
    INDEX 01 05:19:38
  TRACK 240 AUDIO
    TITLE "23:cjc171_11270"
    INDEX 01 05:19:64
  TRACK 241 AUDIO
    TITLE "0:"
    INDEX 01 05:22:31
  TRACK 242 AUDIO
    TITLE "19:cjc171_11271"
    INDEX 01 05:23:36
  TRACK 243 AUDIO
    TITLE "0:"
    INDEX 01 05:24:51
  TRACK 244 AUDIO
    TITLE "20:cjc171_11272"
    INDEX 01 05:25:15
  TRACK 245 AUDIO
    TITLE "0:"
    INDEX 01 05:27:48
  TRACK 246 AUDIO
    TITLE "21:cjc171_11273"
    INDEX 01 05:28:45
  TRACK 247 AUDIO
    TITLE "0:"
    INDEX 01 05:30:38
  TRACK 248 AUDIO
    TITLE "22:cjc171_11274"
    INDEX 01 05:31:02
  TRACK 249 AUDIO
    TITLE "0:"
    INDEX 01 05:33:05
  TRACK 250 AUDIO
    TITLE "23:cjc171_11275"
    INDEX 01 05:33:34
  TRACK 251 AUDIO
    TITLE "0:"
    INDEX 01 05:35:37
  TRACK 252 AUDIO
    TITLE "19:cjc171_11276"
    INDEX 01 05:36:43
  TRACK 253 AUDIO
    TITLE "0:"
    INDEX 01 05:37:52
  TRACK 254 AUDIO
    TITLE "20:cjc171_11277"
    INDEX 01 05:38:18
  TRACK 255 AUDIO
    TITLE "0:"
    INDEX 01 05:41:01
  TRACK 256 AUDIO
    TITLE "21:cjc171_11278"
    INDEX 01 05:41:75
  TRACK 257 AUDIO
    TITLE "0:"
    INDEX 01 05:44:09
  TRACK 258 AUDIO
    TITLE "22:cjc171_11279"
    INDEX 01 05:44:50
  TRACK 259 AUDIO
    TITLE "0:"
    INDEX 01 05:47:09
  TRACK 260 AUDIO
    TITLE "23:cjc171_11280"
    INDEX 01 05:47:37
  TRACK 261 AUDIO
    TITLE "0:"
    INDEX 01 05:49:71
  TRACK 262 AUDIO
    TITLE "19:cjc171_11281"
    INDEX 01 05:50:74
  TRACK 263 AUDIO
    TITLE "0:"
    INDEX 01 05:52:40
  TRACK 264 AUDIO
    TITLE "20:cjc171_11282"
    INDEX 01 05:53:02
  TRACK 265 AUDIO
    TITLE "0:"
    INDEX 01 05:55:34
  TRACK 266 AUDIO
    TITLE "21:cjc171_11283"
    INDEX 01 05:56:32
  TRACK 267 AUDIO
    TITLE "0:"
    INDEX 01 05:58:68
  TRACK 268 AUDIO
    TITLE "22:cjc171_11284"
    INDEX 01 05:59:30
  TRACK 269 AUDIO
    TITLE "0:"
    INDEX 01 06:01:60
  TRACK 270 AUDIO
    TITLE "23:cjc171_11285"
    INDEX 01 06:02:13
  TRACK 271 AUDIO
    TITLE "0:"
    INDEX 01 06:04:43
  TRACK 272 AUDIO
    TITLE "19:cjc171_11286"
    INDEX 01 06:05:42
  TRACK 273 AUDIO
    TITLE "0:"
    INDEX 01 06:06:67
  TRACK 274 AUDIO
    TITLE "20:cjc171_11287"
    INDEX 01 06:07:28
  TRACK 275 AUDIO
    TITLE "0:"
    INDEX 01 06:10:14
  TRACK 276 AUDIO
    TITLE "21:cjc171_11288"
    INDEX 01 06:11:15
  TRACK 277 AUDIO
    TITLE "0:"
    INDEX 01 06:13:40
  TRACK 278 AUDIO
    TITLE "22:cjc171_11289"
    INDEX 01 06:14:02
  TRACK 279 AUDIO
    TITLE "0:"
    INDEX 01 06:16:36
  TRACK 280 AUDIO
    TITLE "23:cjc171_11290"
    INDEX 01 06:16:60
  TRACK 281 AUDIO
    TITLE "0:"
    INDEX 01 06:19:19
  TRACK 282 AUDIO
    TITLE "19:cjc171_11291"
    INDEX 01 06:20:14
  TRACK 283 AUDIO
    TITLE "0:"
    INDEX 01 06:21:47
  TRACK 284 AUDIO
    TITLE "20:cjc171_11292"
    INDEX 01 06:22:07
  TRACK 285 AUDIO
    TITLE "0:"
    INDEX 01 06:25:43
  TRACK 286 AUDIO
    TITLE "21:cjc171_11293"
    INDEX 01 06:26:43
  TRACK 287 AUDIO
    TITLE "0:"
    INDEX 01 06:28:49
  TRACK 288 AUDIO
    TITLE "22:cjc171_11294"
    INDEX 01 06:29:10
  TRACK 289 AUDIO
    TITLE "0:"
    INDEX 01 06:31:28
  TRACK 290 AUDIO
    TITLE "23:cjc171_11295"
    INDEX 01 06:31:46
  TRACK 291 AUDIO
    TITLE "0:"
    INDEX 01 06:33:64
  TRACK 292 AUDIO
    TITLE "19:cjc171_11296"
    INDEX 01 06:34:66
  TRACK 293 AUDIO
    TITLE "0:"
    INDEX 01 06:36:06
  TRACK 294 AUDIO
    TITLE "20:cjc171_11297"
    INDEX 01 06:36:45
  TRACK 295 AUDIO
    TITLE "0:"
    INDEX 01 06:38:69
  TRACK 296 AUDIO
    TITLE "21:cjc171_11298"
    INDEX 01 06:39:71
  TRACK 297 AUDIO
    TITLE "0:"
    INDEX 01 06:42:10
  TRACK 298 AUDIO
    TITLE "22:cjc171_11299"
    INDEX 01 06:42:53
  TRACK 299 AUDIO
    TITLE "0:"
    INDEX 01 06:45:16
  TRACK 300 AUDIO
    TITLE "23:cjc171_11300"
    INDEX 01 06:45:46
  TRACK 301 AUDIO
    TITLE "0:"
    INDEX 01 06:48:11
